<svg xmlns="http://www.w3.org/2000/svg" width="761.943" height="896.25"><path style="color:#000;fill:#fff;fill-opacity:1;fill-rule:nonzero;stroke:#007f4e;stroke-width:28;stroke-opacity:1;marker:none;visibility:visible;display:inline;overflow:visible;enable-background:accumulate" d="M395 158.363c-117.86 87.958-261.398 78.547-359.584 40.296C20 362.362-10 752.362 395.088 1020.362 800.682 752.522 770 362.362 754.76 198.66c-98.18 38.249-241.921 47.664-359.76-40.296z" transform="translate(-14.1 -140.906)"/><path style="color:#000;fill:#007f4e;fill-opacity:1;fill-rule:nonzero;stroke:none;stroke-width:2.85714293;marker:none;visibility:visible;display:inline;overflow:visible;enable-background:accumulate" d="M373.88 782.946C349.4 782.02 302.545 770.9 273.646 748.9v23.233c0 29.098-37.117 29.098-37.117 0v-47.311C117.524 578.685 187.773 394.668 373.88 363.987V318.17H269.041c-28.983 0-28.983-35.522 0-35.522h254.844c28.984 0 28.984 35.522 0 35.522H414.824v45.818C464.008 365.647 535 402.363 572 449.363c18 23-12 43-27.075 25.403-49.925-52.403-84.527-67.777-130.101-74.603v56.534h66.297c15.783 32.615 25.795 65.02 36.048 99.261h21.725c29.878 0 29.279 41.752-.093 41.752h-12.137c5.339 24.853 9.545 49.881 13.508 74.977 3.27-3.606 11.828-14.324 14.828-18.324 15-15 43 5 30 24-15 19-24.534 31.02-40.992 48.959l.143 44.81c.09 28.384-33.773 29.047-36.932 0L505.29 754.4c-25.75 16.272-50.746 26.739-90.466 32.046v85.977c0 29.886-40.944 29.886-40.944 0zm0-103.199h-94.503l-2.934 31.37c.196 14.356 82.654 37.767 97.437 35.974zm132.91 28.37-3.806-28.37h-88.16v67.344c0 7.969 67.877-10.468 91.965-38.974zm-208.797-251.42h75.887v-56.534C198.353 439.818 190.578 584.2 245.46 679.747c6.402-77.844 24.742-152.145 52.534-223.05zm75.887 35.227c-15.749-.554-39.081.554-54.83 0-17.494 50.282-26.906 100.058-35.309 151.35h90.14zM488.803 597.71h-73.98v45.564h82.933zm-6.413-41.752-18.921-64.034c-12.858-.563-35.788.563-48.645 0v64.034z" transform="translate(-14.1 -140.906)"/></svg>