<?xml version="1.0" encoding="UTF-8" standalone="no"?>
<svg
   xmlns:dc="http://purl.org/dc/elements/1.1/"
   xmlns:cc="http://creativecommons.org/ns#"
   xmlns:rdf="http://www.w3.org/1999/02/22-rdf-syntax-ns#"
   xmlns:svg="http://www.w3.org/2000/svg"
   xmlns="http://www.w3.org/2000/svg"
   xmlns:sodipodi="http://sodipodi.sourceforge.net/DTD/sodipodi-0.dtd"
   xmlns:inkscape="http://www.inkscape.org/namespaces/inkscape"
   viewBox="0 0 552.74 552.79"
   version="1.1"
   id="svg16"
   sodipodi:docname="goias-logo.svg"
   inkscape:version="0.92.2 (5c3e80d, 2017-08-06)">
  <metadata
     id="metadata20">
    <rdf:RDF>
      <cc:Work
         rdf:about="">
        <dc:format>image/svg+xml</dc:format>
        <dc:type
           rdf:resource="http://purl.org/dc/dcmitype/StillImage" />
      </cc:Work>
    </rdf:RDF>
  </metadata>
  <sodipodi:namedview
     pagecolor="#ffffff"
     bordercolor="#666666"
     borderopacity="1"
     objecttolerance="10"
     gridtolerance="10"
     guidetolerance="10"
     inkscape:pageopacity="0"
     inkscape:pageshadow="2"
     inkscape:window-width="1600"
     inkscape:window-height="837"
     id="namedview18"
     showgrid="false"
     inkscape:zoom="0.42692525"
     inkscape:cx="147.14999"
     inkscape:cy="-57.422411"
     inkscape:window-x="-8"
     inkscape:window-y="-8"
     inkscape:window-maximized="1"
     inkscape:current-layer="svg16" />
  <defs
     id="defs4">
    <style
       id="style2">.cls-1{fill:#fff;}.cls-2{fill:#005e4f;}</style>
  </defs>
  <title
     id="title6">Goias_SVG</title>
  <g
     id="Layer_2"
     data-name="Layer 2"
     inkscape:export-filename="G:\Users\suitedoalex\sites\goias-logo-escudo-7.png"
     inkscape:export-xdpi="8.6837244"
     inkscape:export-ydpi="8.6837244">
    <g
       id="Layer_1-2"
       data-name="Layer 1">
      <circle
         class="cls-1"
         cx="275.26"
         cy="271.12"
         r="243.5"
         id="circle8" />
      <path
         class="cls-2"
         d="M276.12,552.79C123.11,552.51-1.53,428.35,0,273.39A276.38,276.38,0,1,1,552.72,280C550.86,431.08,428.18,552.69,276.12,552.79Zm224-276.4c.31-119.78-95.81-223.71-223.67-223.92-125.3-.2-222.34,100.33-224.15,220.4C50.42,397.13,149.74,500.51,276.4,500.29,404.19,500.07,500.39,396.24,500.1,276.39Z"
         id="path10" />
      <path
         class="cls-2"
         d="M401.44,315.64H276.7v-52H459c8.17,68.52-35.42,165.2-138.46,191.23-99.48,25.13-201.1-37.46-223.62-137C74,216.63,138.12,116.44,239.32,96.18c100-20,183.2,42.93,208,114.13-1.67.09-3.19.25-4.71.25-16.14,0-32.29-.08-48.43.09-3.17,0-4.89-1.07-6.58-3.69-23.16-36-56.09-56.72-98.53-61.33C221.57,138.28,159.15,185.71,147,252.9c-13.18,72.77,36.45,142.44,109.29,153.42a131.63,131.63,0,0,0,143.64-85.73C400.39,319.25,400.75,317.88,401.44,315.64Z"
         id="path12" />
    </g>
  </g>
</svg>
